HIERARCHY
ROOT Hips
{
  OFFSET -4.35178 90.3298 111.633
  CHANNELS 6 Xposition Yposition Zposition Zrotation Xrotation Yrotation
  JOINT LeftUpLeg
  {
    OFFSET 0.103456 1.85784 10.5485
    CHANNELS 6 Xposition Yposition Zposition Zrotation Xrotation Yrotation
    JOINT LeftLeg
    {
      OFFSET 43.5 -4.2e-05 0
      CHANNELS 6 Xposition Yposition Zposition Zrotation Xrotation Yrotation
      JOINT LeftFoot
      {
        OFFSET 42.3722 1.9e-05 0
        CHANNELS 6 Xposition Yposition Zposition Zrotation Xrotation Yrotation
        JOINT LeftToe
        {
          OFFSET 17.3 0 0
          CHANNELS 6 Xposition Yposition Zposition Zrotation Xrotation Yrotation
          End Site
          {
            OFFSET 0 0 0
          }
        }
      }
    }
  }
  JOINT RightUpLeg
  {
    OFFSET 0.103456 1.85782 -10.5485
    CHANNELS 6 Xposition Yposition Zposition Zrotation Xrotation Yrotation
    JOINT RightLeg
    {
      OFFSET 43.5 -2.7e-05 0
      CHANNELS 6 Xposition Yposition Zposition Zrotation Xrotation Yrotation
      JOINT RightFoot
      {
        OFFSET 42.3723 0 0
        CHANNELS 6 Xposition Yposition Zposition Zrotation Xrotation Yrotation
        JOINT RightToe
        {
          OFFSET 17.3 0 1.7e-05
          CHANNELS 6 Xposition Yposition Zposition Zrotation Xrotation Yrotation
          End Site
          {
            OFFSET 0 0 0
          }
        }
      }
    }
  }
  JOINT Spine
  {
    OFFSET 6.90197 -2.60373 0
    CHANNELS 6 Xposition Yposition Zposition Zrotation Xrotation Yrotation
    JOINT Spine1
    {
      OFFSET 12.5881 0 0
      CHANNELS 6 Xposition Yposition Zposition Zrotation Xrotation Yrotation
      JOINT Spine2
      {
        OFFSET 12.3432 -1.8e-05 0
        CHANNELS 6 Xposition Yposition Zposition Zrotation Xrotation Yrotation
        JOINT Neck
        {
          OFFSET 25.8329 2.3e-05 0
          CHANNELS 6 Xposition Yposition Zposition Zrotation Xrotation Yrotation
          JOINT Head
          {
            OFFSET 11.7666 0 0
            CHANNELS 6 Xposition Yposition Zposition Zrotation Xrotation Yrotation
            End Site
            {
              OFFSET 0 0 0
            }
          }
        }
        JOINT LeftShoulder
        {
          OFFSET 19.7459 -1.48035 6.0001
          CHANNELS 6 Xposition Yposition Zposition Zrotation Xrotation Yrotation
          JOINT LeftArm
          {
            OFFSET 11.2841 1.8e-05 -2e-05
            CHANNELS 6 Xposition Yposition Zposition Zrotation Xrotation Yrotation
            JOINT LeftForeArm
            {
              OFFSET 33 -1.3e-05 1.9e-05
              CHANNELS 6 Xposition Yposition Zposition Zrotation Xrotation Yrotation
              JOINT LeftHand
              {
                OFFSET 25.2 3.2e-05 1.1e-05
                CHANNELS 6 Xposition Yposition Zposition Zrotation Xrotation Yrotation
                End Site
                {
                  OFFSET 0 0 0
                }
              }
            }
          }
        }
        JOINT RightShoulder
        {
          OFFSET 19.7461 -1.48036 -6.00008
          CHANNELS 6 Xposition Yposition Zposition Zrotation Xrotation Yrotation
          JOINT RightArm
          {
            OFFSET 11.2841 0 0
            CHANNELS 6 Xposition Yposition Zposition Zrotation Xrotation Yrotation
            JOINT RightForeArm
            {
              OFFSET 33.0001 1.6e-05 0
              CHANNELS 6 Xposition Yposition Zposition Zrotation Xrotation Yrotation
              JOINT RightHand
              {
                OFFSET 25.1998 0.000123 0.000432
                CHANNELS 6 Xposition Yposition Zposition Zrotation Xrotation Yrotation
                End Site
                {
                  OFFSET 0 0 0
                }
              }
            }
          }
        }
      }
    }
  }
}
MOTION
Frames:	6
Frame Time:	0.0333333
-21.0352 92.0349 1.57773 1.61106 86.6605 91.007 0.103456 1.85784 10.5485 1.93821 11.1058 -175.42 43.5 -4.2e-05 1e-05 -17.5893 -7.43688 -2.7688 42.3722 1.9e-05 2.22045e-16 74.5452 2.64343 -1.50315 17.3 -8.88178e-16 3e-06 21.4546 -1e-06 0.003093 0.103456 1.85782 -10.5485 7.54918 -0.566711 176.058 43.5 -2.7e-05 4e-06 -9.83694 11.1815 2.7202 42.3723 8.88178e-16 1e-05 81.2618 11.3849 -9.71325 17.3 -6e-06 1.7e-05 21.4546 -1.9e-05 -0.003116 6.90197 -2.60373 -3e-06 7.56735 0.268939 -0.24991 12.5881 1e-05 8e-06 5.11688 0.56567 -0.513354 12.3432 -1.8e-05 -5e-06 4.79168 0.607504 -0.53582 25.8329 2.3e-05 7e-06 3.89402 -1.66969 -3.74313 11.7666 -8e-06 -6e-06 -16.8668 -8.54655 10.4043 19.7459 -1.48035 6.0001 174.726 -12.8303 -98.1816 11.2841 1.8e-05 -2e-05 5.88961 -24.5938 37.9712 33 -1.3e-05 1.9e-05 -37.6715 11.3035 -13.0729 25.2 3.2e-05 1.1e-05 -8.36219 30.4311 4.0179 19.7461 -1.48036 -6.00008 -178.984 1.4156 78.8832 11.2841 0 -1e-06 11.1061 -0.296692 -3.77253 33.0001 1.6e-05 -1e-06 -33.8984 6.30901 20.2029 25.1998 0.000123 0.000432 15.842 -12.6114 6.46333 
-21.0758 92.0135 1.71283 -3.98908 86.6554 96.646 0.103456 1.85784 10.5485 1.66761 10.907 -175.384 43.5 -4.2e-05 1e-05 -18.1653 -7.38421 -2.75099 42.3722 1.9e-05 -6.66134e-16 74.816 2.78422 -1.41717 17.3 8.88178e-16 3e-06 21.4546 -1e-06 0.003093 0.103456 1.85782 -10.5485 7.28497 -0.687077 176.095 43.5 -2.7e-05 4e-06 -10.6476 11.2708 2.72104 42.3723 0 1e-05 81.7007 11.5514 -9.69896 17.3 -6e-06 1.7e-05 21.4546 -1.9e-05 -0.003116 6.90197 -2.60373 -3e-06 7.635 0.240134 -0.257268 12.5881 1e-05 8e-06 5.25262 0.508356 -0.523955 12.3432 -1.8e-05 -5e-06 4.92826 0.551716 -0.542662 25.8329 2.3e-05 7e-06 3.65411 -1.87127 -3.80074 11.7666 -8e-06 -6e-06 -16.335 -8.68192 10.1797 19.7459 -1.48035 6.0001 175.198 -12.9676 -97.3997 11.2841 1.8e-05 -2e-05 6.21112 -23.8984 39.192 33 -1.3e-05 1.9e-05 -41.4114 10.79 -12.0685 25.2 3.2e-05 1.1e-05 -9.85734 30.2293 4.11807 19.7461 -1.48036 -6.00008 -178.891 1.63548 78.28 11.2841 0 -1e-06 11.0549 -0.230733 -4.53512 33.0001 1.6e-05 -1e-06 -36.7621 5.18888 20.7661 25.1998 0.000123 0.000432 14.6038 -12.9279 6.84639 
-21.1584 91.9551 1.88127 -9.33024 86.6375 102.01 0.103456 1.85784 10.5485 1.34046 10.6867 -175.323 43.5 -4.2e-05 1e-05 -18.866 -7.35937 -2.73148 42.3722 1.9e-05 2.22045e-16 75.1011 2.94383 -1.26997 17.3 0 3e-06 21.4546 -1e-06 0.003093 0.103456 1.85782 -10.5485 7.18268 -0.818656 176.146 43.5 -2.7e-05 4e-06 -11.1411 11.3718 2.722 42.3723 -2.66454e-15 1e-05 82.0851 11.6567 -9.69241 17.3 -6e-06 1.7e-05 21.4546 -1.9e-05 -0.003116 6.90197 -2.60373 -3e-06 7.70426 0.226928 -0.267375 12.5881 1e-05 8e-06 5.39146 0.481811 -0.54224 12.3432 -1.8e-05 -5e-06 5.06753 0.526195 -0.559064 25.8329 2.3e-05 7e-06 3.38689 -2.04824 -3.85471 11.7666 -8e-06 -6e-06 -15.8718 -8.83849 9.97623 19.7459 -1.48035 6.0001 175.767 -13.0674 -96.5194 11.2841 1.8e-05 -2e-05 6.29342 -22.983 40.415 33 -1.3e-05 1.9e-05 -45.3188 10.207 -10.9457 25.2 3.2e-05 1.1e-05 -11.4723 30.025 4.31179 19.7461 -1.48036 -6.00008 -178.691 1.83909 77.617 11.2841 0 -1e-06 10.937 -0.213223 -5.44091 33.0001 1.6e-05 -1e-06 -40.1448 4.13935 21.2727 25.1998 0.000123 0.000432 13.6164 -13.2494 7.40091 
-21.2573 91.8903 2.06154 -15.0092 86.6317 107.671 0.103456 1.85784 10.5485 0.805079 10.3408 -175.171 43.5 -4.2e-05 1e-05 -19.9125 -7.32115 -2.73483 42.3722 1.9e-05 -1.11022e-15 75.5053 3.00299 -1.11578 17.3 -4.44089e-16 3e-06 21.4546 -1e-06 0.003093 0.103456 1.85782 -10.5485 7.08671 -0.959943 176.261 43.5 -2.7e-05 4e-06 -11.5442 11.4775 2.72104 42.3723 0 1e-05 82.4514 11.7435 -9.68593 17.3 -6e-06 1.7e-05 21.4546 -1.9e-05 -0.003116 6.90197 -2.60373 -3e-06 7.77834 0.236164 -0.27697 12.5881 1e-05 8e-06 5.53962 0.500137 -0.562853 12.3432 -1.8e-05 -5e-06 5.21546 0.545453 -0.580566 25.8329 2.3e-05 7e-06 3.16271 -2.17579 -3.90186 11.7666 -8e-06 -6e-06 -15.6685 -9.02406 9.84038 19.7459 -1.48035 6.0001 176.403 -13.0951 -95.7216 11.2841 1.8e-05 -2e-05 6.43816 -22.1801 42.0323 33 -1.3e-05 1.9e-05 -49.4431 9.31328 -9.75156 25.2 3.2e-05 1.1e-05 -13.0663 29.8297 4.4419 19.7461 -1.48036 -6.00008 -178.416 2.02758 77.0135 11.2841 -7.10543e-15 -1e-06 10.9893 0.176992 -6.76075 33.0001 1.6e-05 -1e-06 -44.4273 3.4079 21.6684 25.1998 0.000123 0.000432 12.5119 -13.3561 7.92354 
-21.3753 91.7905 2.25684 -20.1524 86.6172 112.746 0.103456 1.85784 10.5485 0.023482 9.8342 -174.901 43.5 -4.2e-05 1e-05 -21.4859 -7.2658 -2.79762 42.3722 1.9e-05 6.66134e-16 76.1011 2.90673 -0.9151 17.3 -8.88178e-16 3e-06 21.4546 -1e-06 0.003093 0.103456 1.85782 -10.5485 6.92718 -1.19792 176.423 43.5 -2.7e-05 4e-06 -12.0598 11.5494 2.69576 42.3723 -8.88178e-16 1e-05 82.9026 11.8285 -9.56087 17.3 -6e-06 1.7e-05 21.4546 -1.9e-05 -0.003116 6.90197 -2.60373 -3e-06 7.85637 0.262818 -0.288998 12.5881 1e-05 8e-06 5.69528 0.552876 -0.590986 12.3432 -1.8e-05 -5e-06 5.37043 0.598693 -0.611672 25.8329 2.3e-05 7e-06 3.05358 -2.24573 -4.04333 11.7666 -8e-06 -6e-06 -15.761 -9.17763 9.80911 19.7459 -1.48035 6.0001 177.111 -12.964 -94.9586 11.2841 1.8e-05 -2e-05 6.7263 -21.3808 43.8191 33 -1.3e-05 1.9e-05 -53.8143 7.55038 -8.44836 25.2 3.2e-05 1.1e-05 -14.3501 29.3861 4.60732 19.7461 -1.48036 -6.00008 -178.178 2.26813 76.5992 11.2841 7.10543e-15 -1e-06 10.7497 1.20655 -8.85427 33.0001 1.6e-05 -1e-06 -48.8376 2.35759 22.1566 25.1998 0.000123 0.000432 11.3334 -13.513 8.30109 
-21.4408 91.6508 2.45114 -26.7256 86.5178 119.212 0.103456 1.85784 10.5485 -1.24856 9.09041 -174.58 43.5 -4.2e-05 1e-05 -23.9916 -7.15937 -2.86835 42.3722 1.9e-05 -4.44089e-16 76.7592 2.87387 -0.425598 17.3 -1.33227e-15 3e-06 21.4546 -1e-06 0.003093 0.103456 1.85782 -10.5485 6.73537 -1.50503 176.626 43.5 -2.7e-05 4e-06 -12.7109 11.6232 2.65976 42.3723 8.88178e-16 1e-05 83.4677 11.9935 -9.3874 17.3 -6e-06 1.7e-05 21.4546 -1.9e-05 -0.003116 6.90197 -2.60373 -3e-06 7.97972 0.291325 -0.316566 12.5881 1e-05 8e-06 5.94182 0.607697 -0.65055 12.3432 -1.8e-05 -5e-06 5.61632 0.653459 -0.674181 25.8329 2.3e-05 7e-06 2.96703 -2.36768 -4.1256 11.7666 -8e-06 -6e-06 -16.1652 -9.52349 9.87373 19.7459 -1.48035 6.0001 177.853 -12.6992 -94.1269 11.2841 1.8e-05 -2e-05 6.97897 -20.7756 45.8221 33 -1.3e-05 1.9e-05 -58.462 5.52902 -7.31704 25.2 3.2e-05 1.1e-05 -15.8862 28.8125 4.8054 19.7461 -1.48036 -6.00008 -177.702 2.38515 76.1939 11.2841 -7.10543e-15 -1e-06 10.6327 2.99876 -12.0107 33.0001 1.6e-05 -1e-06 -54.0912 1.72996 22.5049 25.1998 0.000123 0.000432 10.4857 -13.4855 8.76569 
